<?xml version="1.0" encoding="UTF-8"?>
<svg width="145px" height="125px" viewBox="0 0 145 125" version="1.1" xmlns="http://www.w3.org/2000/svg" xmlns:xlink="http://www.w3.org/1999/xlink">
    <!-- Generator: Sketch 50.2 (55047) - http://www.bohemiancoding.com/sketch -->
    <title>Group 15</title>
    <desc>Created with Sketch.</desc>
    <defs>
        <linearGradient x1="44.8669465%" y1="13.0769901%" x2="55.3343087%" y2="89.0393924%" id="linearGradient-1">
            <stop stop-color="#DD9A57" offset="0%"></stop>
            <stop stop-color="#C8C19B" offset="100%"></stop>
        </linearGradient>
        <linearGradient x1="25.6253752%" y1="16.7031048%" x2="115.772797%" y2="87.9029405%" id="linearGradient-2">
            <stop stop-color="#DD9A57" offset="0%"></stop>
            <stop stop-color="#C8C19B" offset="100%"></stop>
        </linearGradient>
        <linearGradient x1="41.4353002%" y1="50.561066%" x2="83.9904734%" y2="49.4108807%" id="linearGradient-3">
            <stop stop-color="#456162" offset="0%"></stop>
            <stop stop-color="#343F40" offset="100%"></stop>
        </linearGradient>
        <linearGradient x1="48.7373737%" y1="52.7970571%" x2="94.6969697%" y2="47.4289677%" id="linearGradient-4">
            <stop stop-color="#CCD2B7" offset="0%"></stop>
            <stop stop-color="#E1C29A" offset="100%"></stop>
        </linearGradient>
    </defs>
    <g id="Page-1" stroke="none" stroke-width="1" fill="none" fill-rule="evenodd">
        <g id="Group-15" transform="translate(0.000000, 10.000000)">
            <g id="annie_prod_head" transform="translate(0.000000, 0.759791)">
                <g id="Group" transform="translate(0.000000, 0.000000)">
                    <g id="Layer0_0_FILL-link" transform="translate(0.000000, 0.000000)" fill-rule="nonzero">
                        <g id="Layer0_0_FILL" transform="translate(0.000000, 0.000000)">
                            <path d="M123.885266,22.3877801 C126.737915,25.4012776 129.041977,28.6903997 130.797453,32.2551468 C127.286501,26.9999013 123.592687,23.1227795 119.716011,20.6237816 C118.838273,20.182782 117.960535,19.8336573 117.082796,19.5764075 C115.363893,19.2456578 113.644989,19.0986579 111.926085,19.1354079 C111.444501,19.1649801 110.96906,19.2017301 110.499761,19.2456578 C111.693794,21.2674803 112.736108,23.3438535 113.626703,25.4747775 C114.621159,25.7374822 115.608614,26.2519819 116.589069,27.0182761 C118.856559,28.8557745 120.484031,31.5752724 121.471487,35.1767692 C121.503488,35.434019 121.558346,35.6912688 121.636063,35.9485186 L121.690921,36.0587684 C122.458942,39.3662655 122.385797,42.5267628 121.471487,45.5402604 C120.776897,47.9292953 119.734582,49.7300439 118.344545,50.9425058 C118.121253,52.2286112 117.609239,53.36786 116.808503,54.360253 L116.479352,54.360253 L115.875907,55.5730019 L116.479352,54.360253 L116.808503,54.360253 C117.609239,53.36786 118.121253,52.2286112 118.344545,50.9425058 C118.41769,50.4664788 118.454262,49.9703543 118.454262,49.454132 L118.454262,48.9580075 C118.234828,43.2985122 117.375376,37.6757671 115.875907,32.0897717 C115.683473,31.3653956 115.464038,30.6487712 115.217603,29.9398988 C114.766734,28.4289868 114.236434,26.9406131 113.626703,25.4747775 C112.736108,23.3438535 111.693794,21.2674803 110.499761,19.2456578 C110.246469,18.8603573 109.990462,18.4561077 109.73174,18.0329088 C109.386588,17.5057764 109.020864,16.9729019 108.634568,16.4342852 C107.872119,15.3069512 107.049239,14.2044521 106.16593,13.126788 C101.850385,7.79804254 96.1999458,4.96829495 89.2146137,4.63754522 L88.885462,4.96829495 C87.0934136,3.53504616 85.1367891,2.43254711 83.015589,1.66079776 C78.6268988,0.0805491101 74.1467776,-0.250200606 69.5752253,0.66854861 C65.0768176,1.51379789 60.8527034,3.05729656 56.9028822,5.29904469 C52.953061,7.54079276 49.2409606,10.1316655 45.7665809,13.071663 C43.1129376,15.3323603 40.6808718,17.8313582 38.4703833,20.5686566 C36.9654857,19.7318771 35.3745853,19.1071276 33.697683,18.6944082 C33.3319586,18.5841583 32.929662,18.5106584 32.4907929,18.4739084 C31.1010411,18.3269085 29.6930031,18.3820335 28.2666788,18.6392833 C27.315796,18.8597831 26.4014853,19.1354079 25.5237473,19.4661576 C25.0117336,19.6131575 24.4997196,19.8336573 23.9877058,20.127657 C20.6596157,21.6711557 17.6058188,23.7291539 14.826315,26.3016517 C11.9370939,29.0578993 9.41359706,32.034647 7.2558244,35.2318942 C5.13462411,38.3923915 3.4888653,41.6080136 2.31854789,44.878761 C1.03851326,48.1862581 0.288778685,51.7326301 0.069344174,55.5178768 L0.179061429,55.6832517 C0.288778685,55.5730019 0.398495937,55.444377 0.508213192,55.297377 C2.55626863,52.8718791 4.42146194,50.9241307 6.1037932,49.454132 C7.85926928,47.8738832 9.26730739,46.7162593 10.3279075,45.9812601 C10.2913351,46.2017597 10.2547627,46.4222596 10.2181903,46.6427595 C9.99875574,47.377759 9.43188327,49.3806321 8.5175728,52.6513793 C7.56668992,55.9956262 6.9083864,59.4684984 6.5426622,63.0699955 C6.21351043,66.6714923 6.25008287,70.2362394 6.65237949,73.7642364 C6.83524155,73.3967365 7.01810366,73.0292369 7.20096575,72.661737 C9.43188327,67.4064915 11.8273767,63.6763698 14.3874459,61.4713716 C14.3874459,61.6183716 14.4057322,61.7837464 14.4423046,61.9674964 C15.3931874,67.8474913 18.1178326,72.4963624 22.6162401,75.9141093 L23.0002505,76.0794844 C22.9636781,75.9692343 22.9453918,75.8589845 22.9453918,75.7487344 C22.6893849,73.2497367 23.0551091,70.493489 24.0425644,67.4799917 C24.0791368,67.6269914 24.1522816,67.7556163 24.2619989,67.8658664 C26.9683577,72.5331124 29.9855823,76.0243594 33.3136724,78.3396074 C33.2770999,78.3028574 33.2405277,78.2661075 33.2039552,78.2293573 C33.0210932,77.714858 32.8748033,77.1819835 32.7650862,76.6307337 C32.5456517,75.5649848 32.3810755,74.4257357 32.2713584,73.2129868 C32.1982138,71.632738 32.2713584,69.9054895 32.4907929,68.0312412 C32.7202276,66.3249515 33.1773829,64.7630778 33.8622588,63.3456201 C35.6571644,67.0280818 37.9977993,70.3355792 40.8841631,73.2681119 C40.6281561,72.753612 40.3904354,72.2023627 40.1710008,71.6143632 C40.1344287,71.5408633 40.1161421,71.4857383 40.1161421,71.4489884 C40.07957,71.3387383 40.0612834,71.2468633 40.0612834,71.1733634 C39.6224147,70.6956137 39.3846939,70.4751139 39.3481214,70.5118641 C39.3846939,70.4751139 39.6224147,70.6956137 40.0612834,71.1733634 L40.1710008,71.6143632 L43.7368114,75.5833599 L44.6145498,76.1346092 C44.4316878,74.2603609 44.6694082,72.4228626 45.3277118,70.6221139 C45.3642843,70.5118641 45.419143,70.401614 45.4922876,70.2913645 C46.3334533,68.5273657 47.7597779,66.818492 49.7712605,65.1647436 C49.7346883,64.980994 49.7164021,64.8156189 49.7164021,64.6686191 C49.6432572,64.3378692 49.5701125,64.0254946 49.4969676,63.7314949 C49.3872502,63.6947449 49.2958193,63.6028699 49.2226743,63.4558702 C49.1129572,63.3456201 49.021526,63.2169952 48.9483814,63.0699955 C48.8752364,63.1067454 48.8203777,63.1434954 48.7838056,63.1802453 C48.7472331,63.1802453 48.6740882,62.8678704 48.564371,62.243121 C48.3083638,61.6551215 48.2169329,61.3611218 48.2900778,61.3611218 C48.2169329,61.3611218 48.3083638,61.6551215 48.564371,62.243121 C48.6009432,62.3166209 48.6558019,62.4084959 48.7289469,62.5187459 C48.8020915,62.7024959 48.8752364,62.8862456 48.9483814,63.0699955 C49.1312434,62.9597454 49.2409606,62.9229955 49.277533,62.9597454 C49.3141055,63.1434954 49.3689639,63.3272453 49.4421089,63.510995 L49.4421089,63.5661197 C49.4786813,63.6028699 49.4969676,63.6579947 49.4969676,63.7314949 C49.7895467,63.8049947 50.1552711,63.9152448 50.5941402,64.0622445 C50.7038573,64.0989945 50.8135747,64.1357447 50.9232919,64.1724946 C50.8867194,64.1724946 50.8684334,64.1908694 50.8684334,64.2276197 C50.502709,64.5216191 50.1369849,64.833994 49.7712605,65.1647436 C49.8809779,65.6057434 50.1369849,66.1202427 50.5392815,66.7082422 C50.9050056,67.2962417 51.6730266,67.9944913 52.8433439,68.8029907 C52.4776195,67.9944913 52.1118957,66.6531172 51.7461713,64.7788689 C51.6364539,64.3011192 51.5267367,63.8049947 51.4170193,63.2904954 L51.4170193,63.2353703 L51.4170193,63.0699955 C51.3804471,62.9964954 51.3621609,62.9413703 51.3621609,62.9046204 C51.289016,62.7208707 51.2524435,62.5371208 51.2524435,62.3533711 L51.0878677,61.3059968 C50.6489989,58.9907487 50.6489989,56.6387511 51.0878677,54.2500029 C58.365779,52.1920047 65.1682488,49.1233821 71.4952773,45.0441358 C77.7857331,40.9648891 83.4178856,36.518143 88.3917345,31.703897 C92.9998591,27.257151 95.3953526,23.1044045 95.5782147,19.2456578 C96.3096629,19.7601573 97.0593977,20.2746569 97.8274184,20.7891565 L97.8822771,20.7891565 C98.6261545,21.2598719 99.3210302,21.7743714 99.9669049,22.3326551 C100.170767,22.5375075 100.371916,22.7396323 100.57035,22.9390296 C100.606922,22.9390296 100.643494,22.9574046 100.680067,22.9941546 C101.521233,23.655654 102.362398,24.3539034 103.203564,25.0889029 C103.240136,25.1256528 103.294995,25.1807776 103.36814,25.2542777 C103.770436,25.6217774 104.008157,25.8422772 104.081302,25.9157771 L106.111071,28.0105252 C106.263647,28.1757564 106.409936,28.3411315 106.54994,28.50665 C107.08424,29.119915 107.541395,29.7262894 107.921406,30.3257732 C108.108268,30.5900571 108.272844,30.8473069 108.415134,31.0975227 L110.225468,34.8460195 L111.816368,38.5945163 C111.852941,38.7047661 112.108947,39.4948904 112.584389,40.9648891 C113.315838,43.2801371 113.772993,45.2646357 113.955855,46.9183841 C114.18729,48.8173239 114.333579,50.7099475 114.394724,52.5962542 C114.490441,56.1380326 114.289292,59.6844046 113.791279,63.2353703 C113.554272,64.9570202 113.243407,66.6475188 112.858682,68.3068659 C111.672793,73.3733373 109.789313,78.2243329 107.208244,82.8598536 C103.843581,88.9235984 99.1623115,93.5357194 93.1644349,96.6962167 C86.43511,99.5259643 79.5229231,99.6729641 72.4278739,97.1372162 C66.6860042,95.1159682 61.6572966,92.1024706 57.3417513,88.096724 C57.2686064,88.059974 57.2137479,88.0232241 57.1771752,87.9864742 C56.5188719,87.3617248 55.8788545,86.7186002 55.2571234,86.0571009 L55.2022647,86.0019758 C54.946258,85.744726 54.690251,85.4691014 54.434244,85.1751016 L54.3793856,85.1199766 C54.3428128,85.1199766 54.3245269,85.1016015 54.3245269,85.0648516 C53.6662233,84.2196023 53.0993506,83.484603 52.6239094,82.8598536 L50.1004124,78.9459817 L49.4421089,77.678108 L49.4421089,77.622983 C49.3323915,77.439233 49.2409606,77.2922333 49.1678156,77.1819835 L49.1678156,77.1268585 C49.1678156,76.9798587 49.1129572,76.8512335 49.0032401,76.7409837 C48.8935227,76.6307337 48.765519,76.5756089 48.6192295,76.5756089 C48.5460845,76.5756089 48.4912258,76.5939837 48.4546536,76.6307337 C48.381509,76.6307337 48.3083638,76.6674839 48.2352191,76.7409837 L48.1803604,76.7961088 L48.1803604,76.8512335 L48.125502,76.7961088 L45.3277118,70.6221139 C44.6694082,72.4228626 44.4316878,74.2603609 44.6145498,76.1346092 L43.7368114,75.5833599 L43.2430842,75.9141093 C47.0100431,78.707107 48.6558019,82.2351042 48.1803604,86.4981003 C49.8261192,86.2776008 50.758716,85.5609761 50.9781506,84.3482272 L51.0878677,85.1751016 L51.1427264,85.4507263 L50.3747057,89.6953476 C51.471878,89.3645979 52.3679024,88.8500983 53.0627781,88.151849 C53.2456405,87.9680991 53.4102163,87.7843494 53.5565059,87.6005995 C53.7027958,87.4535997 53.8307991,87.3065997 53.9405163,87.1595997 C53.977089,87.0860998 54.0319474,87.0126 54.1050924,86.9391001 C54.2513817,86.7186002 54.3610991,86.5164755 54.434244,86.3327255 C54.4708162,86.4062254 54.5256749,86.4797252 54.5988201,86.5532254 L54.1050924,86.9391001 C54.946258,87.8945992 55.8422823,88.8317235 56.7931648,89.7504726 C56.8663098,89.8239725 56.9577407,89.9158475 57.0674581,90.0260976 L57.1223168,90.1363471 C58.9875101,92.0840958 61.5841517,94.0134688 64.9122418,95.9244676 C67.5820283,97.5782159 70.8369737,98.864465 74.6770776,99.7832142 C74.71365,99.7832142 74.7502222,99.8015893 74.786795,99.8383392 L74.8416534,99.8383392 C80.071509,101.418588 85.209934,101.381838 90.2569279,99.7280891 C97.7908459,97.3760912 103.642433,92.87422 107.811688,86.2224757 C111.228209,80.7966871 113.623703,75.0453174 114.998169,68.9683652 C115.137744,70.8492174 115.028027,72.6315907 114.669017,74.3154856 C114.632444,74.4257357 114.614158,74.5543606 114.614158,74.7013606 L114.94331,74.5359855 C119.807442,71.1917383 123.044101,66.5612425 124.653287,60.6444974 C124.68986,60.4607477 124.726432,60.2953729 124.763004,60.1483729 C126.993922,62.4636209 128.895688,66.3407426 130.468301,71.779738 C130.614591,72.1472376 130.742595,72.5331124 130.852312,72.9373619 C131.693478,69.3358651 132.150633,65.6976184 132.223778,62.0226211 C132.296923,58.3476242 132.077488,54.8012524 131.565474,51.3835053 C131.05346,48.0025084 130.742595,45.9261351 130.632878,45.1543856 C130.632878,44.9338858 130.596305,44.731761 130.52316,44.548011 C131.510616,45.2462606 132.772364,46.4406347 134.308406,48.1311333 C135.73473,49.7481318 137.32563,51.80613 139.081106,54.3051279 C139.154251,54.4521277 139.245682,54.5807526 139.355399,54.6910024 L139.465117,54.5807526 C139.721124,50.722006 139.410258,47.0653841 138.53252,43.6108871 C137.801071,40.2298899 136.575895,36.9040177 134.856992,33.6332706 C133.138088,30.3257732 131.016888,27.2020259 128.493391,24.2620285 C126.079611,21.5425308 123.354966,19.3191577 120.319456,17.5919092 C119.844014,17.2979094 119.350287,17.0774096 118.838273,16.9304097 C118.033679,16.5629101 117.192514,16.2505353 116.314776,15.9932856 C114.925024,15.6257859 113.553558,15.497161 112.200379,15.6074109 C111.76151,15.6441608 111.340927,15.6992858 110.93863,15.7727857 C110.173181,15.9454819 109.40516,16.1659817 108.634568,16.4342852 C109.020864,16.9729019 109.386588,17.5057764 109.73174,18.0329088 C111.002775,17.7021591 112.173092,17.5367842 113.242693,17.5367842 C114.925024,17.6102842 116.351348,17.8491589 117.521665,18.2534086 C119.935445,19.0619079 122.056645,20.4400317 123.885266,22.3877801 L123.885266,22.3877801 L123.885266,22.3877801 Z M66.7774351,2.43254711 C67.3260216,2.24879728 67.8746078,2.1017974 68.4231939,1.99154747 C73.1776083,0.778798515 77.8771643,1.07279827 82.5218613,2.87354675 C86.764262,4.4170454 89.8912035,7.09979314 91.9026867,10.9217899 C94.0604592,15.0010364 94.481042,19.3191577 93.1644349,23.8761538 C93.5301593,18.5106584 92.0672625,13.7882874 88.7757446,9.70904091 C86.691117,7.21004302 84.1310476,5.37254461 81.095537,4.1965456 C76.4874122,2.3222972 71.7147116,1.7342977 66.7774351,2.43254711 L66.7774351,2.43254711 L66.7774351,2.43254711 Z M103.807009,10.81154 C104.209305,11.2157896 104.593316,11.6567892 104.95904,12.1345388 C106.056212,13.4207878 106.842519,14.8907865 107.317961,16.5445351 C106.513367,15.442036 105.653916,14.4130369 104.739605,13.4575377 C101.374943,9.74579087 97.187401,7.55916775 92.1769799,6.89766831 L90.366645,4.91317 C91.5369623,5.13366982 92.7255658,5.37254461 93.9324559,5.62979436 C97.6994147,6.36479375 100.990933,8.09204228 103.807009,10.81154 L103.807009,10.81154 L103.807009,10.81154 Z M47.1929052,61.9123716 C47.3757672,62.0593711 47.5769155,62.2247459 47.79635,62.4084959 C47.9426399,62.5187459 48.1072157,62.665746 48.2900778,62.8494953 C48.3997949,62.9597454 48.5095123,63.0516204 48.6192295,63.1251203 C48.0340708,62.8311205 47.7049192,62.6289957 47.6317742,62.5187459 C47.4489122,62.2247459 47.3026223,62.0226211 47.1929052,61.9123716 L47.1929052,61.9123716 L47.1929052,61.9123716 Z M47.4123397,32.3102719 C47.1929052,30.2155234 46.4980291,28.5617748 45.3277118,27.3490259 C45.0351324,26.7242764 44.6876945,26.1914019 44.2853979,25.7504023 C44.139108,25.4196525 43.8648153,25.0154028 43.4625185,24.5376532 C43.4990909,24.5009033 43.4808047,24.4641533 43.4076598,24.4274034 C43.0317928,24.0207133 42.6477822,23.6348386 42.2556287,23.2697793 C43.8981016,21.7630306 45.5987192,21.0096563 47.357481,21.0096563 C49.7712605,20.9729063 51.5815954,22.3326551 52.7884852,25.0889029 C53.995375,27.8819003 54.2696682,31.2628975 53.6113646,35.2318942 C53.5382199,35.5258937 53.4833612,35.8382685 53.4467888,36.1690185 C52.7153403,39.7337653 51.3438747,42.8023877 49.3323915,45.3748852 C47.1746189,48.1678832 44.907129,49.5827569 42.5299219,49.6195068 C41.1458842,49.6195068 39.9572807,49.1601323 38.9641111,48.2413831 C39.1196867,47.7386549 39.24769,47.3527802 39.3481214,47.0837589 C41.0670252,46.0915096 42.456777,44.9155109 43.5173769,43.555762 C44.6876945,42.1960134 45.67515,40.5055148 46.4797432,38.4842662 C47.2843361,36.4997682 47.5952018,34.4417699 47.4123397,32.3102719 L47.4123397,32.3102719 L47.4123397,32.3102719 Z M24.2071403,23.1044045 C20.0013122,25.3829025 15.7771979,29.0211494 11.5347973,34.019145 C13.8022872,30.6013982 16.5452186,27.4776508 19.7635914,24.6479032 C21.8847917,22.8104047 24.2254265,21.5425308 26.7854959,20.8442814 C27.9923856,20.4767817 29.4552823,20.2930319 31.1741861,20.2930319 C32.929662,20.3297819 34.8862865,20.8259064 37.044059,21.7814056 C38.9092524,22.7369048 40.2990042,23.7659039 41.2133148,24.868403 C40.0429975,24.2804035 38.8361077,23.7291539 37.5926455,23.2146544 C35.8737417,22.479655 34.1365518,22.0570304 32.3810755,21.9467805 C30.6255996,21.8365306 28.8518374,21.9100305 27.0597888,22.1672803 C26.1089061,22.3877801 25.1580231,22.7001548 24.2071403,23.1044045 L24.2071403,23.1044045 L24.2071403,23.1044045 Z M98.7600149,67.2594921 C97.5165527,65.4587434 96.1633733,64.4848692 94.7004766,64.3378692 C93.2010073,64.1173696 91.6101072,64.7053691 89.9277759,66.1018679 L89.8729172,66.1569927 C89.5437656,66.3774926 89.2329002,66.6898671 88.9403207,67.0941169 C88.8306033,67.241117 88.7757446,67.3881167 88.7757446,67.5351164 C88.7757446,67.7188664 88.8488898,67.8658664 88.9951791,67.9761162 C89.141469,68.0496163 89.2877586,68.086366 89.4340482,68.086366 C89.6169103,68.086366 89.7632001,68.0128664 89.8729172,67.8658664 C90.1289242,67.5351164 90.3849312,67.2778669 90.640938,67.0941169 C92.0306901,65.918118 93.329011,65.4036183 94.5359005,65.5506184 C95.706218,65.6976184 96.7851044,66.5061175 97.7725597,67.9761162 C97.8822771,68.086366 98.0102804,68.1598658 98.15657,68.1966161 C98.3028596,68.233366 98.4491495,68.1966161 98.5954391,68.086366 C98.741729,67.9761162 98.8331598,67.8474913 98.8697323,67.7004915 C98.9063048,67.5167416 98.8697323,67.3697416 98.7600149,67.2594921 L98.7600149,67.2594921 L98.7600149,67.2594921 Z M51.0878677,85.1751016 C51.0878677,85.2118516 51.0695814,85.2669766 51.033009,85.3404765 C51.0695814,85.3404765 51.1061539,85.3772264 51.1427264,85.4507263 L51.0878677,85.1751016 L51.0878677,85.1751016 L51.0878677,85.1751016 Z M48.9483814,63.0699955 C48.8752364,62.8862456 48.8020915,62.7024959 48.7289469,62.5187459 C48.6558019,62.4084959 48.6009432,62.3166209 48.564371,62.243121 C48.6740882,62.8678704 48.7472331,63.1802453 48.7838056,63.1802453 C48.8203777,63.1434954 48.8752364,63.1067454 48.9483814,63.0699955 L48.9483814,63.0699955 L48.9483814,63.0699955 Z M118.454262,48.9580075 L118.454262,49.454132 L118.509121,49.454132 C119.09428,48.9028825 119.075993,48.7375076 118.454262,48.9580075 L118.454262,48.9580075 L118.454262,48.9580075 Z" id="Shape" fill="#000000"></path>
                            <path d="M11.5347973,34.019145 C15.7771979,29.0211494 20.0013122,25.3829025 24.2071403,23.1044045 C25.1580231,22.7001548 26.1089061,22.3877801 27.0597888,22.1672803 C28.8518374,21.9100305 30.6255996,21.8365306 32.3810755,21.9467805 C34.1365518,22.0570304 35.8737417,22.479655 37.5926455,23.2146544 C38.8361077,23.7291539 40.0429975,24.2804035 41.2133148,24.868403 C40.2990042,23.7659039 38.9092524,22.7369048 37.044059,21.7814056 C34.8862865,20.8259064 32.929662,20.3297819 31.1741861,20.2930319 C29.4552823,20.2930319 27.9923856,20.4767817 26.7854959,20.8442814 C24.2254265,21.5425308 21.8847917,22.8104047 19.7635914,24.6479032 C16.5452186,27.4776508 13.8022872,30.6013982 11.5347973,34.019145 L11.5347973,34.019145 L11.5347973,34.019145 Z M104.95904,12.1345388 C104.593316,11.6567892 104.209305,11.2157896 103.807009,10.81154 C100.990933,8.09204228 97.6994147,6.36479375 93.9324559,5.62979436 C92.7255658,5.37254461 91.5369623,5.13366982 90.366645,4.91317 L92.1769799,6.89766831 C97.187401,7.55916775 101.374943,9.74579087 104.739605,13.4575377 C105.653916,14.4130369 106.513367,15.442036 107.317961,16.5445351 C106.842519,14.8907865 106.056212,13.4207878 104.95904,12.1345388 L104.95904,12.1345388 L104.95904,12.1345388 Z M68.4231939,1.99154747 C67.8746078,2.1017974 67.3260216,2.24879728 66.7774351,2.43254711 C71.7147116,1.7342977 76.4874122,2.3222972 81.095537,4.1965456 C84.1310476,5.37254461 86.691117,7.21004302 88.7757446,9.70904091 C92.0672625,13.7882874 93.5301593,18.5106584 93.1644349,23.8761538 C94.481042,19.3191577 94.0604592,15.0010364 91.9026867,10.9217899 C89.8912035,7.09979314 86.764262,4.4170454 82.5218613,2.87354675 C77.8771643,1.07279827 73.1776083,0.778798515 68.4231939,1.99154747 L68.4231939,1.99154747 L68.4231939,1.99154747 Z M130.797453,32.2551468 C129.041977,28.6903997 126.737915,25.4012776 123.885266,22.3877801 C122.056645,20.4400317 119.935445,19.0619079 117.521665,18.2534086 C116.351348,17.8491589 114.925024,17.6102842 113.242693,17.5367842 C112.173092,17.5367842 111.002775,17.7021591 109.73174,18.0329088 C109.990462,18.4561077 110.246469,18.8603573 110.499761,19.2456578 C110.96906,19.2017301 111.444501,19.1649801 111.926085,19.1354079 C113.644989,19.0986579 115.363893,19.2456578 117.082796,19.5764075 C117.960535,19.8336573 118.838273,20.182782 119.716011,20.6237816 C123.592687,23.1227795 127.286501,26.9999013 130.797453,32.2551468 L130.797453,32.2551468 L130.797453,32.2551468 Z" id="Shape" fill="#663300"></path>
                            <path d="M52.7884852,25.0889029 C51.5815954,22.3326551 49.7712605,20.9729063 47.357481,21.0096563 C45.5987192,21.0096563 43.8981016,21.7630306 42.2556287,23.2697793 C42.6477822,23.6348386 43.0317928,24.0207133 43.4076598,24.4274034 C43.4808047,24.4641533 43.4990909,24.5009033 43.4625185,24.5376532 L46.1505912,24.5376532 C48.125502,24.5376532 49.8809779,25.9892769 51.4170193,28.8925245 C52.953061,31.7222721 53.6296506,34.1477699 53.4467888,36.1690185 C53.4833612,35.8382685 53.5382199,35.5258937 53.6113646,35.2318942 C54.2696682,31.2628975 53.995375,27.8819003 52.7884852,25.0889029 L52.7884852,25.0889029 L52.7884852,25.0889029 Z M113.626703,25.4747775 C114.236434,26.9406131 114.766734,28.4289868 115.217603,29.9398988 C115.728045,30.1837979 116.240059,30.4777976 116.753645,30.821898 C119.332572,32.5135447 120.960044,34.2224184 121.636063,35.9485186 C121.558346,35.6912688 121.503488,35.434019 121.471487,35.1767692 C120.484031,31.5752724 118.856559,28.8557745 116.589069,27.0182761 C115.608614,26.2519819 114.621159,25.7374822 113.626703,25.4747775 L113.626703,25.4747775 L113.626703,25.4747775 Z" id="Shape" fill="#CC0000"></path>
                            <path d="M45.3277118,27.3490259 C46.4980291,28.5617748 47.1929052,30.2155234 47.4123397,32.3102719 C47.5952018,34.4417699 47.2843361,36.4997682 46.4797432,38.4842662 C45.67515,40.5055148 44.6876945,42.1960134 43.5173769,43.555762 C42.456777,44.9155109 41.0670252,46.0915096 39.3481214,47.0837589 C39.24769,47.3527802 39.1196867,47.7386549 38.9641111,48.2413831 C39.9572807,49.1601323 41.1458842,49.6195068 42.5299219,49.6195068 C44.907129,49.5827569 47.1746189,48.1678832 49.3323915,45.3748852 C51.3438747,42.8023877 52.7153403,39.7337653 53.4467888,36.1690185 C53.6296506,34.1477699 52.953061,31.7222721 51.4170193,28.8925245 C49.8809779,25.9892769 48.125502,24.5376532 46.1505912,24.5376532 L43.4625185,24.5376532 C43.8648153,25.0154028 44.139108,25.4196525 44.2853979,25.7504023 C44.6876945,26.1914019 45.0351324,26.7242764 45.3277118,27.3490259 L45.3277118,27.3490259 L45.3277118,27.3490259 Z M115.217603,29.9398988 C115.464038,30.6487712 115.683473,31.3653956 115.875907,32.0897717 C117.375376,37.6757671 118.234828,43.2985122 118.454262,48.9580075 C119.075993,48.7375076 119.09428,48.9028825 118.509121,49.454132 L118.454262,49.454132 C118.454262,49.9703543 118.41769,50.4664788 118.344545,50.9425058 C119.734582,49.7300439 120.776897,47.9292953 121.471487,45.5402604 C122.385797,42.5267628 122.458942,39.3662655 121.690921,36.0587684 L121.636063,35.9485186 C120.960044,34.2224184 119.332572,32.5135447 116.753645,30.821898 C116.240059,30.4777976 115.728045,30.1837979 115.217603,29.9398988 L115.217603,29.9398988 L115.217603,29.9398988 Z" id="Shape" fill="#990000"></path>
                            <path d="M47.79635,62.4084959 C47.5769155,62.2247459 47.3757672,62.0593711 47.1929052,61.9123716 C47.3026223,62.0226211 47.4489122,62.2247459 47.6317742,62.5187459 C47.7049192,62.6289957 48.0340708,62.8311205 48.6192295,63.1251203 C48.5095123,63.0516204 48.3997949,62.9597454 48.2900778,62.8494953 C48.1072157,62.665746 47.9426399,62.5187459 47.79635,62.4084959 L47.79635,62.4084959 L47.79635,62.4084959 Z M88.3917345,37.3266423 C91.7946836,33.9071725 94.3913252,30.9120501 96.1816596,28.3412752 C97.0709691,27.1291003 97.7658454,26.0082262 98.2662872,24.9786529 C100.826357,25.5666524 103.441285,26.5772765 106.111071,28.0105252 L104.081302,25.9157771 C104.008157,25.8422772 103.770436,25.6217774 103.36814,25.2542777 C103.294995,25.1807776 103.240136,25.1256528 103.203564,25.0889029 C102.362398,24.3539034 101.521233,23.655654 100.680067,22.9941546 C100.643494,22.9574046 100.606922,22.9390296 100.57035,22.9390296 C100.371916,22.7396323 100.170767,22.5375075 99.9669049,22.3326551 C99.3210302,21.7743714 98.6261545,21.2598719 97.8822771,20.7891565 L97.8274184,20.7891565 C97.0593977,20.2746569 96.3096629,19.7601573 95.5782147,19.2456578 C95.3953526,23.1044045 92.9998591,27.257151 88.3917345,31.703897 C83.4178856,36.518143 77.7857331,40.9648891 71.4952773,45.0441358 C65.1682488,49.1233821 58.365779,52.1920047 51.0878677,54.2500029 C50.6489989,56.6387511 50.6489989,58.9907487 51.0878677,61.3059968 L51.2524435,62.3533711 C51.2524435,62.5371208 51.289016,62.7208707 51.3621609,62.9046204 C51.3621609,62.9413703 51.3804471,62.9964954 51.4170193,63.0699955 L51.4170193,63.2353703 L51.4170193,63.2904954 C51.5267367,63.8049947 51.6364539,64.3011192 51.7461713,64.7788689 C51.8924611,64.889119 52.057037,65.0177439 52.239899,65.1647436 C51.983892,62.7024959 52.4227611,60.2953729 53.5565059,57.9433749 C55.3851268,57.4288753 57.6709029,56.620376 60.4138344,55.5178768 C63.1201934,54.4153777 67.1980182,52.3757543 72.6473084,49.399007 C78.0600264,46.3855097 83.3081682,42.3613879 88.3917345,37.3266423 L88.3917345,37.3266423 L88.3917345,37.3266423 Z M45.4922876,70.2913645 C45.419143,70.401614 45.3642843,70.5118641 45.3277118,70.6221139 L48.125502,76.7961088 L48.1803604,76.7961088 L48.2352191,76.7409837 C48.3083638,76.6674839 48.381509,76.6307337 48.4546536,76.6307337 L48.2352191,76.0794844 L48.5095123,76.4102341 L48.3997949,76.1346092 L48.4546536,76.2448592 L48.3997949,76.0243594 C47.3391948,74.4073606 46.3700258,72.4963624 45.4922876,70.2913645 L45.4922876,70.2913645 L45.4922876,70.2913645 Z M49.277533,62.9597454 C49.2409606,62.9229955 49.1312434,62.9597454 48.9483814,63.0699955 C49.021526,63.2169952 49.1129572,63.3456201 49.2226743,63.4558702 C49.2958193,63.4926201 49.3689639,63.5293701 49.4421089,63.5661197 L49.4421089,63.510995 C49.3689639,63.3272453 49.3141055,63.1434954 49.277533,62.9597454 L49.277533,62.9597454 L49.277533,62.9597454 Z M50.5941402,64.0622445 C50.6672849,64.0989945 50.758716,64.1541195 50.8684334,64.2276197 C50.8684334,64.1908694 50.8867194,64.1724946 50.9232919,64.1724946 C50.8135747,64.1357447 50.7038573,64.0989945 50.5941402,64.0622445 L50.5941402,64.0622445 L50.5941402,64.0622445 Z" id="Shape" fill="#AC6C2D"></path>
                            <path d="M110.225468,34.8460195 L110.225468,34.9011442 C110.869057,40.6876854 111.088491,46.2920554 110.883772,51.714255 C110.666052,58.0552038 109.879745,64.1556985 108.524851,70.0157396 C108.065124,71.5557928 107.55311,73.0625415 106.988809,74.5359855 C106.767089,75.1904508 106.529368,75.8335753 106.275647,76.4653588 C103.166991,83.9991027 98.7965874,90.742722 93.1644349,96.6962167 C99.1623115,93.5357194 103.843581,88.9235984 107.208244,82.8598536 C109.789313,78.2243329 111.672793,73.3733373 112.858682,68.3068659 C113.243407,66.6475188 113.554272,64.9570202 113.791279,63.2353703 C114.289292,59.6844046 114.490441,56.1380326 114.394724,52.5962542 C114.333579,50.7099475 114.18729,48.8173239 113.955855,46.9183841 C113.772993,45.2646357 113.315838,43.2801371 112.584389,40.9648891 C112.108947,39.4948904 111.852941,38.7047661 111.816368,38.5945163 L110.225468,34.8460195 L110.225468,34.8460195 L110.225468,34.8460195 Z" id="Shape" fill="#E4B381"></path>
                            <path d="M96.1816596,28.3412752 C94.3913252,30.9120501 91.7946836,33.9071725 88.3917345,37.3266423 C83.3081682,42.3613879 78.0600264,46.3855097 72.6473084,49.399007 C67.1980182,52.3757543 63.1201934,54.4153777 60.4138344,55.5178768 C57.6709029,56.620376 55.3851268,57.4288753 53.5565059,57.9433749 C52.4227611,60.2953729 51.983892,62.7024959 52.239899,65.1647436 C52.057037,65.0177439 51.8924611,64.889119 51.7461713,64.7788689 C52.1118957,66.6531172 52.4776195,67.9944913 52.8433439,68.8029907 C51.6730266,67.9944913 50.9050056,67.2962417 50.5392815,66.7082422 C50.1369849,66.1202427 49.8809779,65.6057434 49.7712605,65.1647436 C47.7597779,66.818492 46.3334533,68.5273657 45.4922876,70.2913645 C46.3700258,72.4963624 47.3391948,74.4073606 48.3997949,76.0243594 L48.4546536,76.2448592 L48.6192295,76.5756089 C48.765519,76.5756089 48.8935227,76.6307337 49.0032401,76.7409837 C49.1129572,76.8512335 49.1678156,76.9798587 49.1678156,77.1268585 L49.1678156,77.1819835 C49.2409606,77.2922333 49.3323915,77.439233 49.4421089,77.622983 L49.4421089,77.678108 L50.1004124,78.9459817 L52.6239094,82.8598536 C53.0993506,83.484603 53.6662233,84.2196023 54.3245269,85.0648516 C54.3245269,85.1016015 54.3428128,85.1199766 54.3793856,85.1199766 L54.434244,85.1751016 C54.690251,85.4691014 54.946258,85.744726 55.2022647,86.0019758 L55.2571234,86.0571009 C55.8788545,86.7186002 56.5188719,87.3617248 57.1771752,87.9864742 C57.2137479,88.0232241 57.2686064,88.059974 57.3417513,88.096724 C61.6572966,92.1024706 66.6860042,95.1159682 72.4278739,97.1372162 C79.5229231,99.6729641 86.43511,99.5259643 93.1644349,96.6962167 C98.7965874,90.742722 103.166991,83.9991027 106.275647,76.4653588 C106.529368,75.8335753 106.767089,75.1904508 106.988809,74.5359855 C107.55311,73.0625415 108.065124,71.5557928 108.524851,70.0157396 C109.879745,64.1556985 110.666052,58.0552038 110.883772,51.714255 C111.088491,46.2920554 110.869057,40.6876854 110.225468,34.9011442 L110.225468,34.8460195 L108.415134,31.0975227 C108.272844,30.8473069 108.108268,30.5900571 107.921406,30.3257732 C107.541395,29.7262894 107.08424,29.119915 106.54994,28.50665 C106.409936,28.3411315 106.263647,28.1757564 106.111071,28.0105252 C103.441285,26.5772765 100.826357,25.5666524 98.2662872,24.9786529 C97.7658454,26.0082262 97.0709691,27.1291003 96.1816596,28.3412752 L96.1816596,28.3412752 L96.1816596,28.3412752 Z M94.7004766,64.3378692 C96.1633733,64.4848692 97.5165527,65.4587434 98.7600149,67.2594921 C98.8697323,67.3697416 98.9063048,67.5167416 98.8697323,67.7004915 C98.8331598,67.8474913 98.741729,67.9761162 98.5954391,68.086366 C98.4491495,68.1966161 98.3028596,68.233366 98.15657,68.1966161 C98.0102804,68.1598658 97.8822771,68.086366 97.7725597,67.9761162 C96.7851044,66.5061175 95.706218,65.6976184 94.5359005,65.5506184 C93.329011,65.4036183 92.0306901,65.918118 90.640938,67.0941169 C90.3849312,67.2778669 90.1289242,67.5351164 89.8729172,67.8658664 C89.7632001,68.0128664 89.6169103,68.086366 89.4340482,68.086366 C89.2877586,68.086366 89.141469,68.0496163 88.9951791,67.9761162 C88.8488898,67.8658664 88.7757446,67.7188664 88.7757446,67.5351164 C88.7757446,67.3881167 88.8306033,67.241117 88.9403207,67.0941169 C89.2329002,66.6898671 89.5437656,66.3774926 89.8729172,66.1569927 L89.9277759,66.1018679 C91.6101072,64.7053691 93.2010073,64.1173696 94.7004766,64.3378692 L94.7004766,64.3378692 L94.7004766,64.3378692 Z M49.2226743,63.4558702 C49.2958193,63.6028699 49.3872502,63.6947449 49.4969676,63.7314949 C49.4969676,63.6579947 49.4786813,63.6028699 49.4421089,63.5661197 L49.2226743,63.4558702 L49.2226743,63.4558702 L49.2226743,63.4558702 Z M50.8684334,64.2276197 C50.758716,64.1541195 50.6672849,64.0989945 50.5941402,64.0622445 C50.1552711,63.9152448 49.7895467,63.8049947 49.4969676,63.7314949 C49.5701125,64.0254946 49.6432572,64.3378692 49.7164021,64.6686191 C49.7164021,64.8156189 49.7346883,64.980994 49.7712605,65.1647436 C50.1369849,64.833994 50.502709,64.5216191 50.8684334,64.2276197 L50.8684334,64.2276197 L50.8684334,64.2276197 Z" id="Shape" fill="#DC9752"></path>
                        </g>
                    </g>
                    <g id="Layer0_0_1_STROKES-link" transform="translate(38.580101, 20.947481)" stroke="#660000">
                        <path d="M75.0466022,4.55485777 C76.041058,4.79918766 77.0285132,5.30449973 78.0089685,6.07079398 C80.2764584,7.90829242 81.903931,10.6277901 82.8913862,14.229287 C82.9233872,14.4865368 82.9873889,14.7437866 83.0833913,15.0010364 L83.1108207,15.1112863 C83.8788415,18.4187835 83.8056965,21.5792808 82.8913862,24.5927782 C82.1967959,26.9818133 81.154482,28.7825617 79.7644444,29.9950236 M3.67552804,2.3222972 C5.31800104,0.815548485 7.0186185,0.0621741268 8.7773804,0.0621741268 C11.19116,0.0254241573 13.0014947,1.385173 14.2083845,4.14142065 C15.4152743,6.93441827 15.6895675,10.3154154 15.0312639,14.284412 C14.9581191,14.5784117 14.9032605,14.8907865 14.866688,15.2215362 C14.1352397,18.7862832 12.763774,21.8549056 10.752291,24.4274034 C8.59451831,27.220401 6.32702838,28.6352746 3.94982119,28.6720246 C2.56578371,28.6720246 1.37718013,28.2218377 0.384010392,27.3214634" id="Layer0_0_1_STROKES"></path>
                    </g>
                    <g id="Layer0_0_2_STROKES-link" transform="translate(33.748233, 0.000000)" stroke="#000000">
                        <path d="M20.3568574,86.9391001 C20.2837125,87.0126 20.2288539,87.0860998 20.1922815,87.1595997 C20.0825642,87.3065997 19.9545608,87.4535997 19.8082711,87.6005995 C19.6619814,87.7843494 19.4974055,87.9680991 19.3145434,88.151849 C18.6196675,88.8500983 17.7236433,89.3645979 16.6264707,89.6953476 L17.3944915,85.4507263 M17.3396329,85.1751016 L17.2299156,84.3482272 C17.0104811,85.5609761 16.0778844,86.2776008 14.4321256,86.4981003 C14.907567,82.2351042 13.2618082,78.707107 9.4948491,75.9141093 C9.16569737,75.5466099 8.87311802,75.21586 8.61711108,74.9218602 M0.114023821,63.3731827 C1.90892954,67.0372692 4.24956434,70.3355792 7.13592814,73.2681119 M55.1372269,4.96829495 C53.3451788,3.53504616 51.3885543,2.43254711 49.2673542,1.66079776 C44.878664,0.0805491101 40.3985428,-0.250200606 35.8269905,0.66854861 C31.3285828,1.51379789 27.1044685,3.05729656 23.1546474,5.29904469 C19.2048262,7.54079276 15.4927257,10.1316655 12.018346,13.071663 C9.36470275,15.3323603 6.94178003,17.8405457 4.74957783,20.5962191 M14.4869842,76.0794844 L14.7064188,76.6307337 M20.6860091,86.3327255 C20.6128643,86.5164755 20.503147,86.7186002 20.3568574,86.9391001 M17.3944915,85.4507263 L17.3396329,85.1751016" id="Layer0_0_2_STROKES"></path>
                    </g>
                </g>
                <g id="Group" transform="translate(93.877595, 18.466860)" fill="#000000" fill-rule="nonzero">
                    <g id="Layer0_1_FILL-link">
                        <g id="Layer0_1_FILL">
                            <path d="M5.76015588,10.0949156 C6.27216973,8.14716724 6.1807387,6.25454384 5.48586274,4.4170454 C4.75441436,2.54279702 3.63895563,1.18304817 2.13948647,0.337798891 C1.88347954,0.227548988 1.68233124,0.190799018 1.53604157,0.227548988 C0.438869021,0.595048671 0.201148301,1.75267268 0.822879411,3.70042103 C0.896024248,3.95767079 1.07888634,4.03117074 1.37146569,3.92092085 C1.92005196,2.78167181 2.74293138,3.53504616 3.84010392,6.18104392 C4.90070403,8.79029168 4.84584545,11.4179144 3.67552804,14.0639122 C4.51669365,13.4024128 5.21156959,12.0794139 5.76015588,10.0949156 L5.76015588,10.0949156 L5.76015588,10.0949156 Z" id="Shape"></path>
                        </g>
                    </g>
                </g>
                <g id="Group" transform="translate(83.116182, 59.328578) rotate(-4.515051) translate(-83.116182, -59.328578) translate(48.116182, 48.828578)" fill-rule="nonzero">
                    <g id="Annie_glasses_quarter_0_Layer1_0_FILL-link" transform="translate(19.901653, 1.972534)">
                        <g id="Group" transform="translate(0.000000, -0.000000)">
                            <g id="Annie_glasses_quarter_0_Layer1_0_FILL" transform="translate(0.000000, -0.000000)">
                                <path d="M3.07654708,10.6916249 C5.15524196,12.1364317 7.65130844,12.9427518 10.5647465,13.1105852 C13.4961734,13.3133651 15.9922399,12.8334126 18.0529459,11.6707279 C20.1766885,10.5327907 21.2409029,9.05453724 21.2455891,7.23596754 C21.2868577,5.43104646 20.2613419,3.81840631 18.1690421,2.39804715 C16.1558024,1.00843489 13.6790853,0.221312921 10.7388907,0.0366812242 C7.83391793,-0.139851277 5.3185021,0.340101145 3.19264316,1.47653848 C1.14372814,2.63142399 0.0988630984,4.10967744 0.0580480577,5.91129885 C0.0524548856,7.72416913 1.05862122,9.31761115 3.07654708,10.6916249 L3.07654708,10.6916249 L3.07654708,10.6916249 Z" id="Shape" fill="url(#linearGradient-1)"></path>
                                <path d="M30.243038,9.30936198 C30.2468173,11.0197924 31.117538,12.5172439 32.8552005,13.8017166 C34.6552951,15.170331 36.8030731,15.9382548 39.2985351,16.1054883 C39.9208888,16.1438844 40.5013695,16.1438844 41.0399769,16.1054883 C42.0437245,12.8679092 42.7596504,8.95149745 43.1877549,4.35625301 C42.0718415,3.9850398 40.8334828,3.75466265 39.472679,3.66512151 C36.973136,3.51243667 34.8060084,3.97319097 32.9712967,5.04738448 C31.2014357,6.16447375 30.2920161,7.5851329 30.243038,9.30936198 L30.243038,9.30936198 L30.243038,9.30936198 Z" id="Shape" fill="url(#linearGradient-2)"></path>
                                <path d="M47.9476957,12.2466708 C48.6320277,10.8302112 48.2450408,8.98719392 46.7867343,6.71761892 C46.7540824,9.41075193 46.3864445,12.0792874 45.6838215,14.7232253 C46.5037502,14.5210453 47.258375,13.6955272 47.9476957,12.2466708 L47.9476957,12.2466708 L47.9476957,12.2466708 Z" id="Shape" fill="url(#linearGradient-3)"></path>
                                <path d="M45.8579654,5.85370455 C45.0481649,5.24821458 44.1580946,4.74906407 43.1877549,4.35625301 C42.7596504,8.95149745 42.0437245,12.8679092 41.0399769,16.1054883 C42.811652,16.0099477 44.3596002,15.5491934 45.6838215,14.7232253 L45.6838215,14.7232253 C46.3864445,12.0792874 46.7540824,9.41075193 46.7867343,6.71761892 L46.7867343,6.60243032 C46.5173551,6.3686035 46.2077654,6.11902823 45.8579654,5.85370455 L45.8579654,5.85370455 L45.8579654,5.85370455 L45.8579654,5.85370455 Z" id="Shape" fill="url(#linearGradient-4)"></path>
                            </g>
                        </g>
                    </g>
                    <g id="Annie_glasses_quarter_0_Layer0_0_FILL-link" transform="translate(0.165314, 0.166198)" fill="#990000">
                        <g id="Group">
                            <g id="Annie_glasses_quarter_0_Layer0_0_FILL">
                                <path d="M30.7074225,0.518348612 C27.4233235,0.262323995 24.5789686,0.780672607 22.174358,2.07339446 C19.9754855,3.36251666 18.7371269,4.99435489 18.4592823,6.96890916 L18.4592823,7.02650343 L18.2851381,7.02650343 L0.522432517,9.50305792 L0.812672807,11.1732923 L18.6334265,9.0423036 C18.9994013,10.6400952 20.0055677,12.0799525 21.6519255,13.3618754 C23.9008342,15.1123518 26.6677917,16.1106529 29.9527977,16.3567785 C33.2368968,16.6443 36.0619023,16.1067533 38.4278141,14.7441383 C40.6210935,13.537208 41.8594521,11.943766 42.14289,9.96381224 C44.6516544,9.3155765 46.9348779,9.71873652 48.9925606,11.1732923 C49.0114568,11.2214376 49.0114568,11.2598338 48.9925606,11.2884809 C49.0043517,13.1919422 49.8170245,14.9197709 51.430579,16.4719671 C53.2256851,18.1384518 55.4702097,19.1175548 58.1641536,19.4092759 C60.8916566,19.7525918 63.271627,19.3110356 65.3040648,18.0846072 C67.3372584,16.8830763 68.4401715,15.23204 68.6128042,13.1314982 C68.784832,11.0794017 67.9721592,9.21718625 66.1747856,7.54485203 C64.4171691,5.87821725 62.1726442,4.87991624 59.4412112,4.54994895 C56.7505928,4.24517915 54.389972,4.68673538 52.3593479,5.87461761 C50.8792735,6.77392847 49.8924566,7.88741808 49.3988971,9.21508644 C49.38892,9.2459834 49.3695707,9.26518152 49.3408492,9.27268074 C46.9416806,7.8407727 44.5230116,7.47600888 42.0848418,8.17838922 C42.0964818,8.13324372 42.0964818,8.07564942 42.0848418,8.00560638 C41.7675425,6.39281625 40.7226776,4.89536471 38.9502466,3.5132517 C36.7398853,1.80237132 33.9922776,0.804070288 30.7074225,0.518348612 L30.7074225,0.518348612 L30.7074225,0.518348612 Z M64.9557765,8.58154927 C66.4576189,9.88462008 67.1348461,11.3244774 66.9874583,12.901121 C66.8571527,14.5476578 65.947733,15.8339303 64.2591996,16.7599385 C62.5600846,17.7061947 60.5671014,18.0325623 58.2802498,17.7390414 C56.0331551,17.5236628 54.1562679,16.7557389 52.6495883,15.4352698 C51.1855377,14.1468975 50.5083101,12.6878422 50.6179062,11.0581038 C50.7950738,9.46076212 51.7238425,8.17448961 53.4042131,7.19928631 C55.1116423,6.30207524 57.0852762,5.97570761 59.325115,6.22018336 C61.6101525,6.48880673 63.4870398,7.27592868 64.9557765,8.58154927 L64.9557765,8.58154927 L64.9557765,8.58154927 Z M37.6731896,4.66513752 C39.6049502,6.04575065 40.5337191,7.5815984 40.4594962,9.27268074 C40.37968,10.9480147 39.3154658,12.3110795 37.266853,13.3618754 C37.2670042,13.3909725 37.2476549,13.4101706 37.2088048,13.4194697 C35.2729627,14.4177707 32.9703898,14.8401288 30.301086,14.686544 C30.223235,14.6778449 30.1264884,14.6586468 30.0108456,14.6289498 L29.9527977,14.6289498 L27.9791639,14.3985726 C26.1090792,14.0041117 24.3095893,13.1593955 22.5806944,11.8644238 C21.0344091,10.6030489 20.2991336,9.2015878 20.3748682,7.66004063 C20.4530215,6.04260096 21.4204891,4.69873417 23.2772711,3.6284403 C23.3740179,3.61149196 23.4514153,3.57309578 23.5094633,3.5132517 C24.053815,3.26532628 24.6149463,3.03494913 25.192857,2.82212023 C26.8289355,2.32461955 28.6671239,2.15183668 30.7074225,2.30377162 C32.3480359,2.44685743 33.8379359,2.79242317 35.177123,3.34046883 L36.4541802,3.91641175 L37.0927089,4.26197747 C37.302075,4.41016282 37.4955685,4.54454948 37.6731896,4.66513752 L37.6731896,4.66513752 L37.6731896,4.66513752 Z M18.4012343,7.19928631 L18.4592823,7.19928631 C18.4627592,7.28597771 18.4627592,7.36277008 18.4592823,7.42966345 L18.4012343,7.19928631 L18.4012343,7.19928631 L18.4012343,7.19928631 Z" id="Shape"></path>
                            </g>
                        </g>
                    </g>
                </g>
                <g id="Group" transform="translate(45.902562, 68.842528) rotate(-3.253688) translate(-45.902562, -68.842528) translate(38.402562, 58.842528)" fill-rule="nonzero">
                    <g id="Annie_ear_profile_0_Layer0_0_FILL-link" transform="translate(0.167640, 0.045542)">
                        <g id="Annie_ear_profile_0_Layer0_0_FILL" transform="translate(0.000000, -0.000000)">
                            <path d="M11.5256083,7.59102332 C11.2730051,6.74277539 10.9815273,5.97815752 10.6511751,5.29716978 C10.6596331,5.29829987 10.6596331,5.27763456 10.6511751,5.23517373 C10.4514347,4.946989 10.2432364,4.63700878 10.0265799,4.3052331 C10.0368272,4.30491019 10.0368272,4.28424483 10.0265799,4.24323705 C9.21249174,2.75484768 8.0465808,1.84557242 6.52884714,1.5154112 C5.15034615,1.26258359 4.02607489,1.59322915 3.15603338,2.50734788 C2.11081246,3.7404879 1.527857,5.20772753 1.407167,6.90906687 L1.407167,6.90906687 C1.40993213,7.55356735 1.45157181,8.21485846 1.53208603,8.89294019 C1.84926325,11.1194699 2.6404171,13.0413472 3.90554757,14.6585721 C5.09260364,16.131301 6.40425344,16.8752535 7.84049692,16.8904296 C8.98965442,16.8883308 10.3429439,16.1030475 11.9003654,14.53458 L11.9628249,13.9766156 C12.043827,13.8690912 12.1062866,13.7450991 12.1502034,13.6046393 C12.4613624,12.6364355 12.5862814,11.5618375 12.5249605,10.3808452 L12.5249605,10.3188491 C12.3793843,10.2552386 12.2752851,10.1312465 12.2126629,9.94687289 C11.9008533,8.78137959 11.6718351,7.99609638 11.5256083,7.59102332 L11.5256083,7.59102332 L11.5256083,7.59102332 Z M3.53079046,5.48315788 C4.93190048,1.97053319 7.0138843,2.61115897 9.77674187,7.40503519 C7.40783469,6.20741372 5.30503105,6.95136623 3.46833096,9.63689267 C3.13423762,8.15076362 3.15505745,6.76618534 3.53079046,5.48315788 L3.53079046,5.48315788 L3.53079046,5.48315788 Z" id="Shape" fill="#DC9752"></path>
                            <path d="M9.77674187,7.40503519 C7.0138843,2.61115897 4.93190048,1.97053319 3.53079046,5.48315788 C3.15505745,6.76618534 3.13423762,8.15076362 3.46833096,9.63689267 C5.30503105,6.95136623 7.40783469,6.20741372 9.77674187,7.40503519 L9.77674187,7.40503519 L9.77674187,7.40503519 Z" id="Shape" fill="#AC6C2D"></path>
                            <path d="M13.3369342,10.132861 C13.4441238,9.98578186 13.4649436,9.82045909 13.3993937,9.63689267 C13.0866081,8.44637493 12.8575899,7.64042639 12.712339,7.21904706 C12.4320845,6.27554479 12.1197869,5.42826554 11.7754463,4.67720933 C11.7660123,4.67688643 11.7451925,4.65622109 11.7129868,4.61521329 C11.53797,4.32476832 11.3505915,4.0147881 11.1508512,3.68527269 C11.1397906,3.68559556 11.1189708,3.66493022 11.0883917,3.62327664 C10.0913166,1.80068986 8.65474778,0.684761111 6.77868522,0.275490366 C4.90896618,-0.0504731981 3.38911798,0.424829791 2.21914069,1.70139933 C0.980522976,3.14748931 0.293468323,4.86271313 0.15797672,6.84707082 L0.15797672,6.90906687 C0.156512824,7.58957027 0.1981525,8.31285741 0.282895747,9.0789283 L0.282895747,9.0789283 C0.632115998,11.5227671 1.50654919,13.6306325 2.90619534,15.4025246 C4.38570507,17.238673 6.05129209,18.1272829 7.90295645,18.0683544 C9.79251941,18.0454287 11.124989,16.867504 11.9003654,14.53458 C10.3429439,16.1030475 8.98965442,16.8883308 7.84049692,16.8904296 C6.40425344,16.8752535 5.09260364,16.131301 3.90554757,14.6585721 C2.6404171,13.0413472 1.84926325,11.1194699 1.53208603,8.89294019 C1.45157181,8.21485846 1.40993213,7.55356735 1.407167,6.90906687 L1.407167,6.90906687 C1.527857,5.20772753 2.11081246,3.7404879 3.15603338,2.50734788 C4.02607489,1.59322915 5.15034615,1.26258359 6.52884714,1.5154112 C8.0465808,1.84557242 9.21249174,2.75484768 10.0265799,4.24323705 C10.0368272,4.28424483 10.0368272,4.30491019 10.0265799,4.3052331 C10.2432364,4.63700878 10.4514347,4.946989 10.6511751,5.23517373 C10.6596331,5.27763456 10.6596331,5.29829987 10.6511751,5.29716978 C10.9815273,5.97815752 11.2730051,6.74277539 11.5256083,7.59102332 C11.6718351,7.99609638 11.9008533,8.78137959 12.2126629,9.94687289 C12.2752851,10.1312465 12.3793843,10.2552386 12.5249605,10.3188491 L12.5249605,10.3808452 C12.6835491,10.4433256 12.829288,10.4433256 12.9621771,10.3808452 C13.1480917,10.3601799 13.2730108,10.2775184 13.3369342,10.132861 L13.3369342,10.132861 L13.3369342,10.132861 Z" id="Shape" fill="#000000"></path>
                        </g>
                    </g>
                </g>
                <g id="Group" transform="translate(85.255199, 83.126151) rotate(3.793910) translate(-85.255199, -83.126151) translate(75.755199, 77.126151)" fill-rule="nonzero">
                    <g id="Annie_mouth_talk_loop_happy_new_11_Layer0_0_FILL-link" transform="translate(0.056412, 0.186582)">
                        <g id="Annie_mouth_talk_loop_happy_new_11_Layer0_0_FILL">
                            <path d="M8.21798658,10.2350562 C8.28970124,10.4034455 8.39854873,10.5037892 8.54452912,10.5360873 C9.47568548,10.9128465 10.7092906,10.9730527 12.2453443,10.7167059 C12.4110249,10.6906793 12.5380137,10.6104044 12.6263105,10.4758811 C12.7185758,10.3402603 12.7548583,10.1797104 12.735158,9.9942314 C12.7119145,9.85139841 12.6393496,9.73098598 12.517463,9.63299411 C12.3945844,9.53108256 12.2494544,9.49094507 12.082073,9.51258167 C10.7518091,9.73772781 9.68147531,9.69759035 8.8710716,9.39216927 C8.73104382,9.35861684 8.58591384,9.37868555 8.4356816,9.45237547 C8.31960594,9.5315529 8.22889971,9.65196533 8.16356283,9.81361274 C8.13323292,9.96836153 8.15137419,10.1088427 8.21798658,10.2350562 L8.21798658,10.2350562 L8.21798658,10.2350562 Z M12.6807343,2.64907337 L12.6263105,2.64907337 C11.4115554,2.56879844 9.57928906,2.46845474 7.12951154,2.34804231 C4.81295888,2.23750747 2.83556253,1.67558281 1.19732255,0.662268344 C1.08606566,0.609744695 0.959076905,0.589675957 0.816356283,0.602062131 C0.717429777,0.623698738 0.626723521,0.683904951 0.544237525,0.782680772 C0.454665098,0.874557961 0.400241344,0.974901649 0.380966268,1.08371184 C0.369627985,1.24206672 0.387769233,1.38254788 0.435390018,1.50515533 C0.856465457,2.29896798 1.65468049,3.40274855 2.83003513,4.81649705 C2.86645935,4.82700178 2.88460059,4.82700178 2.88445888,4.81649705 C3.18747444,5.10686661 3.51401695,5.38782893 3.86408642,5.65938404 L3.91851017,5.71959024 C3.97406774,5.79077157 4.04663273,5.85097777 4.13620516,5.90020891 C4.17234596,5.92968486 4.1904872,5.94975357 4.19062891,5.96041511 C5.34330698,6.75156237 6.86717205,7.31348704 8.76222411,7.64618909 C11.4224685,8.09585424 13.7264073,7.83496063 15.6740407,6.8635083 C15.7347004,6.84814316 15.7891242,6.82807445 15.8373119,6.80330207 C16.3644003,6.63240423 16.8904965,6.41164811 17.4156007,6.14103374 C17.5577544,6.07283138 17.6484607,5.95241895 17.6877195,5.77979647 C17.7544736,5.64684106 17.7544736,5.50635991 17.6877195,5.35835298 C17.626351,5.20109559 17.5175035,5.08068316 17.361177,4.99711569 C17.2409912,4.96372006 17.1140024,4.9837888 16.9802107,5.05732192 C16.7612401,5.17052215 16.5435451,5.27086581 16.3271257,5.35835298 L16.3271257,5.29814678 C16.3272674,4.77808423 16.3091262,4.09574713 16.2727019,3.25113553 C16.5594187,3.14107102 16.8496787,3.02065861 17.143482,2.88989821 C17.2894623,2.8576001 17.3983098,2.75725642 17.4700245,2.58886716 C17.5366369,2.46265362 17.5366369,2.32217246 17.4700245,2.16742368 C17.4408284,2.00577626 17.3501222,1.88536384 17.1979057,1.8061864 C17.0838143,1.7324965 16.9568255,1.71242776 16.8169394,1.74598018 C16.3721954,1.92644204 15.9368053,2.08699194 15.5107694,2.22762989 C15.4768963,2.26478841 15.4406138,2.30492588 15.4019219,2.34804231 C14.6265252,2.65895096 13.7194626,2.75929464 12.6807343,2.64907337 L12.6807343,2.64907337 L12.6807343,2.64907337 Z M11.864378,5.35835298 L15.1298031,5.53897161 C15.1398659,5.66424443 15.1398659,5.76458812 15.1298031,5.84000268 C13.3725112,6.64918045 11.3044086,6.84986783 8.92549538,6.4420648 C7.55937415,6.20249427 6.3983341,5.82118823 5.44237525,5.29814678 C7.11292933,5.11831205 9.2535969,5.13838079 11.864378,5.35835298 L11.864378,5.35835298 L11.864378,5.35835298 Z M12.5718868,3.85319763 L12.5718868,3.85319763 C13.5581755,3.94460448 14.4289556,3.86432951 15.1842269,3.6123728 C15.2159741,4.14388078 15.2341153,4.58539299 15.2386506,4.93690946 L11.9188017,4.75629082 C8.84173381,4.49429973 6.41080621,4.51436847 4.62601895,4.81649705 L4.62601895,4.81649705 C4.59979916,4.79376293 4.56351666,4.77369419 4.51717142,4.75629082 C4.19232968,4.48536289 3.88392843,4.20440057 3.59196766,3.91340386 L3.6463914,3.97361006 C3.26783453,3.51124515 2.92315075,3.08980166 2.61234011,2.70927958 C3.94940699,3.19234038 5.43698953,3.4733027 7.07508782,3.55216659 C9.50587369,3.67148151 11.33814,3.77182517 12.5718868,3.85319763 L12.5718868,3.85319763 L12.5718868,3.85319763 Z" id="Shape" fill="#000000"></path>
                            <path d="M12.5718868,3.85319763 L12.5718868,3.85319763 C11.33814,3.77182517 9.50587369,3.67148151 7.07508782,3.55216659 C5.43698953,3.4733027 3.94940699,3.19234038 2.61234011,2.70927958 C2.92315075,3.08980166 3.26783453,3.51124515 3.6463914,3.97361006 L3.59196766,3.91340386 C3.88392843,4.20440057 4.19232968,4.48536289 4.51717142,4.75629082 C4.56351666,4.77369419 4.59979916,4.79376293 4.62601895,4.81649705 L4.62601895,4.81649705 C6.41080621,4.51436847 8.84173381,4.49429973 11.9188017,4.75629082 L15.2386506,4.93690946 C15.2341153,4.58539299 15.2159741,4.14388078 15.1842269,3.6123728 C14.4289556,3.86432951 13.5581755,3.94460448 12.5718868,3.85319763 L12.5718868,3.85319763 L12.5718868,3.85319763 Z M15.1298031,5.53897161 L11.864378,5.35835298 C9.2535969,5.13838079 7.11292933,5.11831205 5.44237525,5.29814678 C6.3983341,5.82118823 7.55937415,6.20249427 8.92549538,6.4420648 C11.3044086,6.84986783 13.3725112,6.64918045 15.1298031,5.84000268 C15.1398659,5.76458812 15.1398659,5.66424443 15.1298031,5.53897161 L15.1298031,5.53897161 L15.1298031,5.53897161 Z" id="Shape" fill="#FFFFFF"></path>
                        </g>
                    </g>
                </g>
                <g id="Group" transform="translate(90.150063, 58.112058) rotate(1.226670) translate(-90.150063, -58.112058) translate(74.150063, 53.612058)" fill-rule="nonzero">
                    <g id="annie_eye_shape_0_Layer0_0_FILL-link" transform="translate(0.187664, 0.301385)" fill="#000000">
                        <g id="Group">
                            <g id="annie_eye_shape_0_Layer0_0_FILL">
                                <path d="M4.14995202,1.22081975 C3.9565979,0.800904937 3.66298609,0.476532538 3.26911664,0.247702557 C2.88718259,0.0235907198 2.48495831,-0.0342065436 2.06244379,0.0743107672 C1.57786498,0.201700654 1.19593095,0.475353005 0.916641683,0.895267815 C0.515610945,1.50154932 0.253031298,2.16208947 0.128902737,2.87688828 C0.00716126315,3.58932803 -0.0214837895,4.30412681 0.042967579,5.0212847 C0.0859351577,5.51433074 0.206483088,5.99086328 0.404611366,6.45088232 C0.609900911,6.39898272 0.816383998,6.35533993 1.02406063,6.31995383 C1.50147817,6.25389982 1.9812828,6.24210446 2.46347453,6.28456772 C2.93373083,6.31523566 3.39563227,6.37067387 3.84917894,6.45088232 C3.93272702,6.32349244 4.00672675,6.18784578 4.0711781,6.04394243 C4.30511269,5.53202379 4.46385403,5.00005304 4.5474021,4.44803022 C4.62378891,3.93139344 4.64049853,3.41475669 4.59753092,2.89811994 C4.55456337,2.40035573 4.4411767,1.92028459 4.25737095,1.45790648 C4.22156461,1.37769803 4.1857583,1.29866913 4.14995202,1.22081975 L4.14995202,1.22081975 L4.14995202,1.22081975 Z" id="Shape"></path>
                            </g>
                        </g>
                    </g>
                    <g id="annie_eye_shape_0_Layer0_0_FILL-link" transform="translate(26.862093, 1.445558)" fill="#000000">
                        <g id="Group">
                            <g id="annie_eye_shape_0_Layer0_0_FILL">
                                <path d="M3.71743939,1.22081975 C3.54423685,0.800904937 3.28122563,0.476532538 2.92840565,0.247702557 C2.58627722,0.0235907198 2.22597319,-0.0342065436 1.8474936,0.0743107672 C1.41341814,0.201700654 1.07128969,0.475353005 0.821108268,0.895267815 C0.461873401,1.50154932 0.226660095,2.16208947 0.11546835,2.87688828 C0.00641490833,3.58932803 -0.019244725,4.30412681 0.0384894503,5.0212847 C0.0769789,5.51433074 0.18496319,5.99086328 0.36244232,6.45088232 C0.546336358,6.39898272 0.731299549,6.35533993 0.917331893,6.31995383 C1.34499245,6.25389982 1.77479131,6.24210446 2.20672847,6.28456772 C2.62797412,6.31523566 3.04173569,6.37067387 3.44801326,6.45088232 C3.52285382,6.32349244 3.58914121,6.18784578 3.64687538,6.04394243 C3.85642907,5.53202379 3.99862621,5.00005304 4.0734668,4.44803022 C4.1418925,3.93139344 4.15686061,3.41475669 4.11837116,2.89811994 C4.07988171,2.40035573 3.97831233,1.92028459 3.81366301,1.45790648 C3.78158848,1.37769803 3.74951392,1.29866913 3.71743939,1.22081975 L3.71743939,1.22081975 L3.71743939,1.22081975 Z" id="Shape"></path>
                            </g>
                        </g>
                    </g>
                    <g id="annie_eye_white_0_Layer0_0_FILL-link" transform="translate(0.787090, 1.746659)" fill="#FFFFFF">
                        <g id="Group">
                            <g id="annie_eye_white_0_Layer0_0_FILL">
                                <path d="M1.79858338,0.963471703 C1.79858338,0.697725401 1.71044858,0.470427499 1.53417896,0.281577998 C1.35896485,0.0938593327 1.14733576,7.565e-13 0.899291691,7.565e-13 C0.651247623,7.565e-13 0.43909078,0.0938593327 0.262821164,0.281577998 C0.0876070545,0.470427499 -3.6977e-12,0.697725401 -3.6977e-12,0.963471703 C-3.6977e-12,1.22921801 0.0876070545,1.45595049 0.262821164,1.64366916 C0.43909078,1.83251866 0.651247623,1.92694341 0.899291691,1.92694341 C1.14733576,1.92694341 1.35896485,1.83251866 1.53417896,1.64366916 C1.71044858,1.45595049 1.79858338,1.22921801 1.79858338,0.963471703 L1.79858338,0.963471703 L1.79858338,0.963471703 Z" id="Shape"></path>
                            </g>
                        </g>
                    </g>
                    <g id="annie_eye_white_0_Layer0_0_FILL-link" transform="translate(27.401574, 3.011270)" fill="#FFFFFF">
                        <g id="Group">
                            <g id="annie_eye_white_0_Layer0_0_FILL">
                                <path d="M1.79858338,0.963471703 C1.79858338,0.697725401 1.71044858,0.470427499 1.53417896,0.281577998 C1.35896485,0.0938593327 1.14733576,0 0.899291691,0 C0.651247623,0 0.43909078,0.0938593327 0.262821164,0.281577998 C0.0876070545,0.470427499 0,0.697725401 0,0.963471703 C0,1.22921801 0.0876070545,1.45595049 0.262821164,1.64366916 C0.43909078,1.83251866 0.651247623,1.92694341 0.899291691,1.92694341 C1.14733576,1.92694341 1.35896485,1.83251866 1.53417896,1.64366916 C1.71044858,1.45595049 1.79858338,1.22921801 1.79858338,0.963471703 L1.79858338,0.963471703 L1.79858338,0.963471703 Z" id="Shape"></path>
                            </g>
                        </g>
                    </g>
                </g>
                <g id="Group" transform="translate(93.839814, 44.433162) rotate(1.059626) translate(-93.839814, -44.433162) translate(69.839814, 39.433162)" fill="#000000" fill-rule="nonzero">
                    <g id="Annie_eyebrows___all_0_Layer0_0_FILL-link" transform="translate(0.000812, 0.654205)">
                        <g id="Annie_eyebrows___all_0_Layer0_0_FILL">
                            <path d="M46.4626725,7.93741291 C46.5117705,7.75812638 46.4951888,7.57438996 46.4129267,7.38620367 C44.6096375,3.48065661 41.4259002,1.771908 36.8617133,2.25995784 C36.7146778,2.29699222 36.5820223,2.38886042 36.463746,2.53556246 C36.3674931,2.68972878 36.3177472,2.85509156 36.3145085,3.03165077 C36.3478018,3.23117702 36.430712,3.37816615 36.563238,3.47261815 C36.7026302,3.61587513 36.851868,3.67099607 37.0109511,3.63798092 C40.9698956,3.20720519 43.7390845,4.6587228 45.3185168,7.99253386 C45.392488,8.18502643 45.5085617,8.31364191 45.666738,8.37838029 C45.8291896,8.43278349 45.9784274,8.41440987 46.1144511,8.32325938 C46.2888208,8.24129571 46.4048948,8.11268023 46.4626725,7.93741291 L46.4626725,7.93741291 L46.4626725,7.93741291 Z M11.5410493,0.826813846 C11.4463507,0.679537631 11.313695,0.587669422 11.1430821,0.55120923 C5.84851172,0.063015847 2.16731495,1.75339082 0.0994918042,5.62233416 C0.0262979638,5.8052093 0.0097159965,5.98894569 0.0497459021,6.1735434 C0.0882212482,6.3544089 0.171131085,6.4830244 0.298475414,6.55938986 C0.46338826,6.67752662 0.629207933,6.71427392 0.795934432,6.66963169 C0.958774536,6.62685556 1.07484831,6.51661371 1.14415575,6.33890614 C3.02271128,2.96863492 6.3225228,1.49874364 11.0435903,1.92923231 C11.2123895,1.96196035 11.3616272,1.90683943 11.4913034,1.76386954 C11.6243478,1.65908237 11.6906756,1.51209324 11.690287,1.32290215 C11.7199532,1.13600777 11.6702073,0.970645006 11.5410493,0.826813846 L11.5410493,0.826813846 L11.5410493,0.826813846 Z" id="Shape"></path>
                        </g>
                    </g>
                </g>
            </g>
        </g>
    </g>
</svg>