<?xml version="1.0" encoding="UTF-8"?>
<svg width="125px" height="32px" viewBox="0 0 125 32" version="1.1" xmlns="http://www.w3.org/2000/svg" xmlns:xlink="http://www.w3.org/1999/xlink">
    <!-- Generator: Sketch 52.3 (67297) - http://www.bohemiancoding.com/sketch -->
    <title>Group 4</title>
    <desc>Created with Sketch.</desc>
    <g id="Symbols" stroke="none" stroke-width="1" fill="none" fill-rule="evenodd">
        <g id="Header" transform="translate(-372.000000, -12.000000)">
            <g id="Elevation/08dp">
                <g>
                    <g id="Group-4" transform="translate(372.000000, 12.000000)">
                        <g id="logo" transform="translate(36.676404, 0.000000)"></g>
                        <polygon id="Combined-Shape" fill="#2A2F3D" fill-rule="nonzero" points="41.6634292 21.6271095 41.6634292 32 35.2564103 32 35.2564103 0.002450896 41.6634292 0.002450896 41.6634292 10.3596895 51.8260467 0 60.8844859 0.00245089601 45.1238608 15.9934304 60.8974359 31.9975491 51.8389966 32"></polygon>
                        <polygon id="Combined-Shape" fill="#2A2F3D" fill-rule="nonzero" points="68.9102564 25.6 86.5384615 25.6 86.5384615 32 62.5 32 62.5 0 68.9102564 0"></polygon>
                        <polygon id="Rectangle-20" fill="#2A2F3D" fill-rule="nonzero" points="89.7435897 12.8 92.9487179 12.8 92.9487179 32 89.7435897 32"></polygon>
                        <polygon id="Combined-Shape" fill="#2A2F3D" fill-rule="nonzero" points="99.3589744 24.0093817 99.3589744 28.8265099 108.974359 28.8265099 108.974359 32 96.1538462 32 96.1538462 20.7495948 105.769231 20.7495948 105.769231 15.9594302 96.1538462 15.9594302 96.1538462 12.8 108.974359 12.8 108.974359 24.0093817"></polygon>
                        <polygon id="Combined-Shape" fill="#2A2F3D" fill-rule="nonzero" points="125 12.8 125 32 112.179487 32 112.179487 28.7944047 121.794872 28.7944047 121.794872 24.0077037 112.179487 24.0077037 112.179487 20.7923493 121.794872 20.7923493 121.794872 16.0196048 112.179487 16.0196048 112.179487 12.8"></polygon>
                        <g id="Group-6" fill="#F56A00" fill-rule="nonzero">
                            <path d="M29.7715584,23.7083039 L33.644236,32 L25.8613068,32 L21.9281911,23.5789015 C24.1876763,21.822291 25.6410256,19.0805979 25.6410256,16 C25.6410256,10.6980664 21.3360713,6.4 16.025641,6.4 C10.7152107,6.4 6.41025641,10.6980664 6.41025641,16 C6.41025641,21.3019336 10.7152107,25.6 16.025641,25.6 C16.9878076,25.6 17.9169667,25.4589041 18.7934934,25.1963059 L21.9711924,32 L15.8653846,32 C7.10317464,32 0,24.836556 0,16 C0,7.163444 7.10317464,0 15.8653846,0 C24.6275946,0 31.7307692,7.163444 31.7307692,16 C31.7307692,18.7946756 31.0202935,21.4220028 29.7715584,23.7083039 Z" id="Combined-Shape"></path>
                            <path d="M8.81596471,15.3621724 C8.81596471,10.9438944 12.4034267,7.36217242 16.8287852,7.36217242 C17.7138569,7.36217242 18.4313493,8.07851682 18.4313493,8.96217242 C18.4313493,9.84582802 17.7138569,10.5621724 16.8287852,10.5621724 C14.1735701,10.5621724 12.0210929,12.7112056 12.0210929,15.3621724 C12.0210929,16.245828 11.3036005,16.9621724 10.4185288,16.9621724 C9.5334571,16.9621724 8.81596471,16.245828 8.81596471,15.3621724 Z" id="Combined-Shape" transform="translate(13.623657, 12.162172) rotate(13.000000) translate(-13.623657, -12.162172) "></path>
                        </g>
                        <g id="Group-12" transform="translate(89.743590, 0.000000)" fill-rule="nonzero">
                            <polygon id="Rectangle-33" fill="#F5AF7A" points="1.6025641 0 12.8205128 0 11.2179487 6.4 0 6.4"></polygon>
                            <polygon id="Rectangle-33" fill="#F58D3D" points="12.8205128 0 24.0384615 0 22.4358974 6.4 11.2179487 6.4"></polygon>
                            <polygon id="Rectangle-33" fill="#F56A00" points="24.0384615 0 35.2564103 0 33.6538462 6.4 22.4358974 6.4"></polygon>
                        </g>
                    </g>
                </g>
            </g>
        </g>
    </g>
</svg>